<?xml version="1.0" encoding="UTF-8" standalone="no"?>
<!-- Created with Inkscape (http://www.inkscape.org/) -->

<svg
   width="121.92mm"
   height="128.5mm"
   viewBox="0 0 121.92001 128.50002"
   version="1.1"
   id="svg8"
   inkscape:version="1.3 (0e150ed, 2023-07-21)"
   sodipodi:docname="BD_synCret.svg"
   xml:space="preserve"
   xmlns:inkscape="http://www.inkscape.org/namespaces/inkscape"
   xmlns:sodipodi="http://sodipodi.sourceforge.net/DTD/sodipodi-0.dtd"
   xmlns="http://www.w3.org/2000/svg"
   xmlns:svg="http://www.w3.org/2000/svg"
   xmlns:rdf="http://www.w3.org/1999/02/22-rdf-syntax-ns#"
   xmlns:cc="http://creativecommons.org/ns#"
   xmlns:dc="http://purl.org/dc/elements/1.1/"><defs
     id="defs2" /><sodipodi:namedview
     id="base"
     pagecolor="#ffffff"
     bordercolor="#666666"
     borderopacity="1.0"
     inkscape:pageopacity="0.0"
     inkscape:pageshadow="2"
     inkscape:zoom="1.8030938"
     inkscape:cx="130.88615"
     inkscape:cy="171.37212"
     inkscape:document-units="mm"
     inkscape:current-layer="layer2"
     showgrid="false"
     units="mm"
     inkscape:snap-bbox="true"
     inkscape:snap-page="true"
     inkscape:bbox-nodes="false"
     inkscape:snap-bbox-edge-midpoints="false"
     inkscape:window-width="1920"
     inkscape:window-height="1016"
     inkscape:window-x="0"
     inkscape:window-y="27"
     inkscape:window-maximized="1"
     inkscape:snap-bbox-midpoints="true"
     inkscape:snap-nodes="false"
     inkscape:showpageshadow="2"
     inkscape:pagecheckerboard="0"
     inkscape:deskcolor="#d1d1d1" /><metadata
     id="metadata5"><rdf:RDF><cc:Work
         rdf:about=""><dc:format>image/svg+xml</dc:format><dc:type
           rdf:resource="http://purl.org/dc/dcmitype/StillImage" /></cc:Work></rdf:RDF></metadata><g
     inkscape:label="Layer 1"
     inkscape:groupmode="layer"
     id="layer1"
     transform="translate(0,-168.49998)"
     style="display:inline"><rect
       style="display:inline;opacity:1;vector-effect:none;fill:#654ff0;fill-opacity:1;fill-rule:evenodd;stroke:none;stroke-width:1.29872;stroke-linecap:butt;stroke-linejoin:miter;stroke-miterlimit:4;stroke-dasharray:none;stroke-dashoffset:0;stroke-opacity:1;paint-order:normal"
       id="rect420"
       width="121.92"
       height="128.5"
       x="-7.1054274e-15"
       y="168.49998" /><rect
       style="display:inline;fill:#4600b3;fill-opacity:1;stroke-width:0.264583"
       id="rect5"
       width="104.79205"
       height="15.59868"
       x="8.7306662"
       y="271.54678" /><path
       d="m 9.0372194,256.8162 q -0.085153,0 -0.16463,-0.0511 -0.079477,-0.0511 -0.079477,-0.13625 0,-0.0624 0.045415,-0.10786 0.039738,-0.0454 0.096507,-0.0454 0.045415,0 0.085153,0.0341 0.028384,0.017 0.028384,0.0624 0,0.0114 -0.011354,0.0341 h -0.00568 q 0.034061,0 0.085153,-0.0397 0.051092,-0.0397 0.051092,-0.10218 V 254.8747 H 8.730667 v -0.36332 q 0.022708,-0.0454 0.056769,-0.0681 0.039738,-0.0341 0.079477,-0.0341 0.1078611,0 0.1078611,0.10219 0,0.10786 -0.085154,0.10786 v 0.017 q 0.1419224,0 0.2668141,-0.0965 0.113538,-0.0965 0.1305687,-0.26113 h 0.4200903 v 2.1856 q 0,0.0625 0.039738,0.10218 0.051092,0.0397 0.039738,0.0397 0.056769,0.0284 0.039738,0.017 -0.011354,-0.0341 -0.011354,-0.0511 0,-0.0454 0.034061,-0.0624 0.028384,-0.0341 0.0738,-0.0341 0.062446,0 0.1078607,0.0397 0.04542,0.0397 0.04542,0.0852 0,0.0908 -0.0738,0.15327 -0.0738,0.0624 -0.1646302,0.0624 H 9.0372194 Z m 2.7703166,-0.0511 -0.834503,-2.37862 h 0.544982 l 0.562012,1.60088 0.56769,-1.60088 h 0.544982 l -0.834504,2.37862 z m 1.697387,0.0227 1.4987,-3.12229 h 0.56769 l -1.544116,3.15068 h -0.522274 z m 2.452413,-1.37948 q 0,-0.10219 0.05677,-0.18166 0.05677,-0.0795 0.1476,-0.13057 0.09083,-0.0568 0.210045,-0.0851 0.124892,-0.0284 0.25546,-0.0284 h 0.380352 q 0.130569,0 0.249784,0.0284 0.119215,0.0284 0.210045,0.0851 0.09651,0.0511 0.147599,0.13057 0.05677,0.0795 0.05677,0.18166 v 0.93101 q 0,0.10218 -0.05677,0.18166 -0.05109,0.0795 -0.147599,0.13625 -0.09083,0.0511 -0.210045,0.0795 -0.119215,0.0284 -0.249784,0.0284 h -0.380352 q -0.130568,0 -0.25546,-0.0284 -0.119215,-0.0284 -0.210045,-0.0795 -0.09083,-0.0568 -0.1476,-0.13625 -0.05677,-0.0795 -0.05677,-0.18166 z m 1.16944,0.0511 q 0,-0.0795 -0.06245,-0.11921 -0.06245,-0.0397 -0.16463,-0.0397 h -0.16463 q -0.107861,0 -0.170307,0.0397 -0.06245,0.0397 -0.06245,0.11921 v 0.82883 q 0,0.0795 0.06245,0.11921 0.06245,0.0397 0.170307,0.0397 h 0.16463 q 0.102184,0 0.16463,-0.0397 0.06245,-0.0397 0.06245,-0.11921 z m 0.953713,-0.0511 q 0,-0.10219 0.05677,-0.18166 0.05677,-0.0795 0.147599,-0.13057 0.09083,-0.0568 0.210046,-0.0851 0.124891,-0.0284 0.25546,-0.0284 h 0.380352 q 0.130569,0 0.249784,0.0284 0.119214,0.0284 0.210045,0.0851 0.09651,0.0511 0.147599,0.13057 0.05677,0.0795 0.05677,0.18166 v 0.18166 H 19.24993 v -0.13057 q 0,-0.0795 -0.06245,-0.11921 -0.06245,-0.0397 -0.16463,-0.0397 h -0.16463 q -0.107861,0 -0.170307,0.0397 -0.06245,0.0397 -0.06245,0.11921 v 0.82883 q 0,0.0795 0.06245,0.11921 0.06245,0.0397 0.170307,0.0397 h 0.16463 q 0.102184,0 0.16463,-0.0397 0.06245,-0.0397 0.06245,-0.11921 v -0.12489 h 0.544982 v 0.17598 q 0,0.10218 -0.05677,0.18166 -0.05109,0.0795 -0.147599,0.13625 -0.09083,0.0511 -0.210045,0.0795 -0.119215,0.0284 -0.249784,0.0284 h -0.380352 q -0.130569,0 -0.25546,-0.0284 -0.119215,-0.0284 -0.210046,-0.0795 -0.09083,-0.0568 -0.147599,-0.13625 -0.05677,-0.0795 -0.05677,-0.18166 z m 3.26421,-0.42009 v 0.3179 h -0.346291 v 0.98211 q 0,0.0795 0.05677,0.11921 0.06245,0.0397 0.170307,0.0397 h 0.141923 v 0.31791 h -0.249784 q -0.130568,0 -0.25546,-0.0284 -0.119215,-0.0284 -0.210045,-0.0795 -0.09083,-0.0568 -0.1476,-0.13625 -0.05677,-0.0795 -0.05677,-0.18166 v -1.0332 h -0.32926 v -0.3179 h 0.32926 v -0.40306 h 0.550659 v 0.40306 z"
       id="text4"
       style="font-size:4.9389px;font-family:Dhurjati;-inkscape-font-specification:'Dhurjati, Normal';fill:#ffffff;stroke-width:0.264583"
       aria-label="1V/oct" /><path
       d="m 10.851769,283.81082 q 0,-0.10218 0.05677,-0.18166 0.05677,-0.0795 0.1476,-0.13057 0.09083,-0.0568 0.210045,-0.0851 0.124892,-0.0284 0.25546,-0.0284 h 0.465506 q 0.130568,0 0.249783,0.0284 0.124892,0.0284 0.215722,0.0851 0.09083,0.0511 0.1476,0.13057 0.05677,0.0795 0.05677,0.18166 v 1.52708 q 0,0.10219 -0.05677,0.18167 -0.05677,0.0795 -0.1476,0.13624 -0.09083,0.0511 -0.215722,0.0795 -0.119215,0.0284 -0.249783,0.0284 h -0.465506 q -0.130568,0 -0.25546,-0.0284 -0.119215,-0.0284 -0.210045,-0.0795 -0.09083,-0.0568 -0.1476,-0.13624 -0.05677,-0.0795 -0.05677,-0.18167 z m 1.254594,0.0511 q 0,-0.0795 -0.06245,-0.11921 -0.05677,-0.0397 -0.16463,-0.0397 h -0.249784 q -0.107861,0 -0.170307,0.0397 -0.06245,0.0397 -0.06245,0.11921 v 1.4249 q 0,0.0795 0.06245,0.11922 0.06245,0.0397 0.170307,0.0397 h 0.249784 q 0.107861,0 0.16463,-0.0397 0.06245,-0.0397 0.06245,-0.11922 z m 2.225336,0.12489 h 0.544982 v 1.77687 h -0.544982 v -0.10786 q -0.06245,0.0454 -0.16463,0.0795 -0.09651,0.0284 -0.198692,0.0284 h -0.204368 q -0.130569,0 -0.25546,-0.0284 -0.119215,-0.0284 -0.210046,-0.0795 -0.09083,-0.0568 -0.147599,-0.13624 -0.05677,-0.0795 -0.05677,-0.18167 v -1.3511 h 0.544982 v 1.30001 q 0,0.0795 0.06245,0.11922 0.06245,0.0397 0.170307,0.0397 h 0.141922 q 0.06245,0 0.119215,-0.017 0.05677,-0.017 0.102184,-0.0454 0.04542,-0.0341 0.06812,-0.0681 0.02839,-0.0397 0.02839,-0.0852 z m 2.106124,0 v 0.31791 h -0.34629 v 0.9821 q 0,0.0795 0.05677,0.11922 0.06245,0.0397 0.170307,0.0397 h 0.141922 v 0.3179 h -0.249783 q -0.130569,0 -0.255461,-0.0284 -0.119215,-0.0284 -0.210045,-0.0795 -0.09083,-0.0568 -0.147599,-0.13624 -0.05677,-0.0795 -0.05677,-0.18167 v -1.03319 h -0.32926 v -0.31791 h 0.32926 v -0.40306 h 0.550659 v 0.40306 z m 3.190409,1.77687 h -1.62927 v -2.37862 h 0.544983 v 2.06072 h 1.084287 z"
       id="text4-3"
       style="font-size:4.9389px;font-family:Dhurjati;-inkscape-font-specification:'Dhurjati, Normal';fill:#ffffff;stroke-width:0.264583"
       aria-label="Out L" /><path
       d="m 26.091767,283.81082 q 0,-0.10218 0.05677,-0.18166 0.05677,-0.0795 0.1476,-0.13057 0.09083,-0.0568 0.210045,-0.0851 0.124892,-0.0284 0.25546,-0.0284 h 0.465506 q 0.130568,0 0.249783,0.0284 0.124892,0.0284 0.215722,0.0851 0.09083,0.0511 0.147599,0.13057 0.05677,0.0795 0.05677,0.18166 v 1.52708 q 0,0.10219 -0.05677,0.18167 -0.05677,0.0795 -0.147599,0.13624 -0.09083,0.0511 -0.215722,0.0795 -0.119215,0.0284 -0.249783,0.0284 h -0.465506 q -0.130568,0 -0.25546,-0.0284 -0.119215,-0.0284 -0.210045,-0.0795 -0.09083,-0.0568 -0.1476,-0.13624 -0.05677,-0.0795 -0.05677,-0.18167 z m 1.254594,0.0511 q 0,-0.0795 -0.06245,-0.11921 -0.05677,-0.0397 -0.16463,-0.0397 h -0.249784 q -0.107861,0 -0.170307,0.0397 -0.06245,0.0397 -0.06245,0.11921 v 1.4249 q 0,0.0795 0.06245,0.11922 0.06245,0.0397 0.170307,0.0397 h 0.249784 q 0.107861,0 0.16463,-0.0397 0.06245,-0.0397 0.06245,-0.11922 z m 2.225336,0.12489 h 0.544982 v 1.77687 h -0.544982 v -0.10786 q -0.06245,0.0454 -0.16463,0.0795 -0.09651,0.0284 -0.198691,0.0284 h -0.204368 q -0.130569,0 -0.255461,-0.0284 -0.119214,-0.0284 -0.210045,-0.0795 -0.09083,-0.0568 -0.147599,-0.13624 -0.05677,-0.0795 -0.05677,-0.18167 v -1.3511 h 0.544982 v 1.30001 q 0,0.0795 0.06245,0.11922 0.06245,0.0397 0.170307,0.0397 h 0.141922 q 0.06245,0 0.119215,-0.017 0.05677,-0.017 0.102184,-0.0454 0.04541,-0.0341 0.06812,-0.0681 0.02838,-0.0397 0.02838,-0.0852 z m 2.106125,0 v 0.31791 h -0.34629 v 0.9821 q 0,0.0795 0.05677,0.11922 0.06245,0.0397 0.170306,0.0397 h 0.141923 v 0.3179 h -0.249784 q -0.130568,0 -0.25546,-0.0284 -0.119215,-0.0284 -0.210045,-0.0795 -0.09083,-0.0568 -0.147599,-0.13624 -0.05677,-0.0795 -0.05677,-0.18167 v -1.03319 h -0.32926 v -0.31791 h 0.32926 v -0.40306 h 0.550659 v 0.40306 z m 2.662457,0.72097 0.783412,1.0559 h -0.573367 l -0.766381,-1.03319 v 1.03319 h -0.544982 v -2.37862 h 1.095641 q 0.130569,0 0.249784,0.0284 0.119215,0.0284 0.210045,0.0851 0.09651,0.0511 0.147599,0.13057 0.05677,0.0795 0.05677,0.18166 v 0.47118 q 0,0.10219 -0.05677,0.18166 -0.05109,0.0795 -0.141922,0.13625 -0.09083,0.0511 -0.215722,0.0795 -0.119215,0.0284 -0.244107,0.0284 z m 0.113538,-0.84586 q 0,-0.0795 -0.06245,-0.11921 -0.06245,-0.0397 -0.170307,-0.0397 h -0.437121 v 0.6869 h 0.437121 q 0.107861,0 0.170307,-0.0397 0.06245,-0.0397 0.06245,-0.11921 z"
       id="text4-3-7"
       style="font-size:4.9389px;font-family:Dhurjati;-inkscape-font-specification:'Dhurjati, Normal';fill:#ffffff;stroke-width:0.264583"
       aria-label="Out R" /><path
       d="m 11.686107,12.365718 q 0,0.291954 -0.162197,0.519029 -0.145977,0.227075 -0.421711,0.389272 -0.259515,0.145977 -0.600127,0.227075 -0.340613,0.0811 -0.7136652,0.0811 H 6.7877706 V 6.7861568 H 9.593771 q 0.373052,0 0.713665,0.081098 0.356832,0.081098 0.616347,0.2432948 0.259514,0.1459769 0.421711,0.3730521 0.162196,0.2270752 0.162196,0.519029 v 1.1353758 q 0,0.097318 -0.03244,0.2108556 -0.03244,0.097318 -0.09732,0.1946358 -0.04866,0.097318 -0.145977,0.1946359 -0.0811,0.081098 -0.210855,0.1459769 0.113537,0.064879 0.227075,0.145977 0.129757,0.0811 0.227075,0.194636 0.09732,0.09732 0.145977,0.227075 0.06488,0.113538 0.06488,0.275734 z m -2.2058736,0.308174 q 0.2919538,0 0.47037,-0.113538 Q 10.12902,12.446817 10.12902,12.219741 V 10.87351 q 0,-0.210856 -0.162197,-0.324393 Q 9.8046265,10.435579 9.5126727,10.41936 H 8.3448575 v 2.254532 z M 9.9343837,9.0569086 V 8.1486079 q 0,-0.2270752 -0.1784162,-0.3406128 Q 9.593771,7.6944575 9.2855975,7.6944575 h -0.94074 v 1.8166014 h 0.94074 q 0.3243931,0 0.4865897,-0.1297572 Q 9.9343837,9.2515444 9.9343837,9.0569086 Z M 15.854544,6.7861568 q 0.373052,0 0.713664,0.081098 0.340613,0.081098 0.600128,0.2432948 0.275734,0.1459769 0.421711,0.3730521 0.162196,0.2270752 0.162196,0.519029 v 4.363087 q 0,0.291954 -0.162196,0.519029 -0.145977,0.227075 -0.421711,0.389272 -0.259515,0.145977 -0.600128,0.227075 -0.340612,0.0811 -0.713664,0.0811 H 12.72415 V 6.7861568 Z m 0.340612,1.3624511 q 0,-0.2270752 -0.178416,-0.3406128 -0.178416,-0.1135376 -0.48659,-0.1135376 h -1.248913 v 4.9794345 h 1.248913 q 0.308174,0 0.48659,-0.113538 0.178416,-0.113537 0.178416,-0.340613 z m 2.708671,2.6924631 v -0.713665 h 4.427966 v 0.713665 h -4.427966 z m 7.590797,0.421711 q -0.373052,0 -0.729884,-0.06488 -0.340613,-0.0811 -0.600127,-0.227075 -0.259515,-0.162197 -0.421711,-0.389272 -0.162197,-0.227075 -0.162197,-0.519029 V 9.7056948 q 0,-0.2919538 0.162197,-0.519029 0.162196,-0.2270752 0.421711,-0.3730521 0.259514,-0.1621965 0.600127,-0.2432948 0.356832,-0.081098 0.729884,-0.081098 h 1.265133 q 0.389272,0 0.729885,0.081098 0.340613,0.081098 0.600127,0.2432948 0.275734,0.1459769 0.421711,0.3730521 0.162197,0.2270752 0.162197,0.519029 V 9.93277 H 28.11659 v -0.081098 q 0,-0.2270752 -0.178416,-0.3406128 -0.178417,-0.1135376 -0.48659,-0.1135376 h -0.648786 q -0.308174,0 -0.48659,0.1135376 -0.178416,0.1135376 -0.178416,0.3406128 v 0.048659 q 0,0.2432944 0.178416,0.3568324 0.178416,0.113538 0.48659,0.09732 h 0.956959 q 0.389272,0 0.729885,0.0811 0.340613,0.0811 0.600127,0.243295 0.275734,0.145977 0.421711,0.373052 0.162197,0.227075 0.162197,0.519029 v 0.794763 q 0,0.291954 -0.162197,0.519029 -0.145977,0.227075 -0.421711,0.389272 -0.259514,0.145977 -0.600127,0.227075 -0.340613,0.0811 -0.729885,0.0811 h -1.265133 q -0.373052,0 -0.729884,-0.0811 -0.340613,-0.0811 -0.600127,-0.227075 -0.259515,-0.162197 -0.421711,-0.389272 -0.162197,-0.227075 -0.162197,-0.519029 v -0.502809 h 1.557087 v 0.356832 q 0,0.227076 0.178416,0.340613 0.178416,0.113538 0.48659,0.113538 h 0.648786 q 0.308173,0 0.48659,-0.113538 0.178416,-0.113537 0.178416,-0.340613 v -0.502809 q 0,-0.227075 -0.178416,-0.340613 -0.178417,-0.113537 -0.48659,-0.113537 z m 5.498444,-2.7735614 1.39489,1.8814804 1.42733,-1.8814804 h 1.557087 l -2.205873,2.9033184 v 2.189653 H 32.609415 V 11.392539 L 30.435981,8.4892206 Z m 6.650034,5.0929714 H 37.086015 V 8.5054403 h 1.557087 v 0.3081734 q 0.178416,-0.1459769 0.45415,-0.2270751 0.291954,-0.081098 0.600128,-0.081098 h 0.567688 q 0.389271,0 0.729884,0.081098 0.340613,0.081098 0.600127,0.2432948 0.275734,0.1459769 0.421711,0.3730521 0.162197,0.2108555 0.162197,0.5028093 V 13.582192 H 40.6219 V 9.8678913 q 0,-0.2432948 -0.178416,-0.3406127 Q 40.265068,9.413741 39.956894,9.413741 h -0.405491 q -0.178417,0 -0.340613,0.048659 -0.162197,0.048659 -0.291954,0.1297573 -0.129757,0.081098 -0.210855,0.1946359 -0.06488,0.1135375 -0.06488,0.2432949 z m 4.57394,-5.579561 q 0,-0.2919538 0.162197,-0.519029 0.162196,-0.2270752 0.421711,-0.3730521 0.259514,-0.1621965 0.600127,-0.2432948 0.356833,-0.081098 0.729885,-0.081098 h 1.086717 q 0.373052,0 0.713664,0.081098 0.340613,0.081098 0.600128,0.2432948 0.275734,0.1459769 0.421711,0.3730521 0.162196,0.2270752 0.162196,0.519029 V 8.9109317 H 46.558291 V 8.1486079 q 0,-0.2270752 -0.178416,-0.3406128 -0.178416,-0.1135376 -0.47037,-0.1135376 h -0.47037 q -0.308173,0 -0.48659,0.1135376 -0.178416,0.1135376 -0.178416,0.3406128 v 4.0711331 q 0,0.227076 0.178416,0.340613 0.178417,0.113538 0.48659,0.113538 h 0.47037 q 0.291954,0 0.47037,-0.113538 0.178416,-0.113537 0.178416,-0.340613 v -0.762323 h 1.557087 v 0.9083 q 0,0.291954 -0.162196,0.519029 -0.145977,0.227075 -0.421711,0.389272 -0.259515,0.145977 -0.600128,0.227075 -0.340612,0.0811 -0.713664,0.0811 h -1.086717 q -0.373052,0 -0.729885,-0.0811 -0.340613,-0.0811 -0.600127,-0.227075 -0.259515,-0.162197 -0.421711,-0.389272 -0.162197,-0.227075 -0.162197,-0.519029 z m 7.54213,5.579561 H 49.202085 V 8.5054403 h 1.557087 V 8.894712 q 0.0811,-0.081098 0.194636,-0.1459769 0.113537,-0.081098 0.259514,-0.1297572 0.162197,-0.048659 0.340613,-0.081098 0.178416,-0.032439 0.373052,-0.032439 h 0.275734 V 9.413741 H 51.79723 q -0.210856,0 -0.405492,0.048659 -0.178416,0.048659 -0.324393,0.1459769 -0.129757,0.081098 -0.227075,0.2108556 -0.0811,0.1297572 -0.0811,0.2919536 z m 7.071744,-2.35185 h -3.341249 v 0.989399 q 0,0.227076 0.178416,0.340613 0.178417,0.113538 0.48659,0.113538 h 0.47037 q 0.291954,0 0.47037,-0.113538 0.178416,-0.113537 0.178416,-0.340613 v -0.324393 h 1.557087 v 0.47037 q 0,0.291954 -0.162196,0.519029 -0.145977,0.227075 -0.421711,0.389272 -0.259515,0.145977 -0.600128,0.227075 -0.340612,0.0811 -0.713664,0.0811 H 54.8465 q -0.373052,0 -0.729885,-0.0811 -0.340613,-0.0811 -0.600127,-0.227075 Q 53.256973,13.111822 53.094777,12.884747 52.93258,12.657672 52.93258,12.365718 V 9.7056948 q 0,-0.2919538 0.162197,-0.519029 0.162196,-0.2270752 0.421711,-0.3730521 0.259514,-0.1621965 0.600127,-0.2432948 0.356833,-0.081098 0.729885,-0.081098 h 1.086717 q 0.373052,0 0.713664,0.081098 0.340613,0.081098 0.600128,0.2432948 0.275734,0.1459769 0.421711,0.3730521 0.162196,0.2270752 0.162196,0.519029 z M 56.273829,9.8516717 q 0,-0.2270752 -0.178416,-0.3406128 -0.178416,-0.1135376 -0.47037,-0.1135376 h -0.47037 q -0.308173,0 -0.48659,0.1135376 -0.178416,0.1135376 -0.178416,0.3406128 v 0.4703703 h 1.784162 z M 62.275098,8.5054403 V 9.413741 h -0.989399 v 2.806 q 0,0.227076 0.162197,0.340613 0.178416,0.113538 0.486589,0.113538 h 0.405492 v 0.9083 h -0.713665 q -0.373052,0 -0.729885,-0.0811 -0.340612,-0.0811 -0.600127,-0.227075 -0.259514,-0.162197 -0.421711,-0.389272 -0.162197,-0.227075 -0.162197,-0.519029 V 9.413741 h -0.94074 V 8.5054403 h 0.94074 V 7.3538447 h 1.573307 v 1.1515956 z"
       id="text1"
       style="font-size:14.1111px;font-family:Dhurjati;-inkscape-font-specification:'Dhurjati, Normal';stroke-width:0.264583;fill:#ffffff;fill-opacity:1"
       aria-label="BD-synCret"
       transform="translate(0,168.49998)" /><path
       d="m 7.1567672,19.660138 q -0.147599,0 -0.2611367,-0.09651 -0.1078608,-0.08515 -0.1078608,-0.215722 V 15.90204 q 0,-0.124891 0.1078608,-0.210045 0.1135377,-0.09083 0.2611367,-0.09083 h 0.9366861 v 0.374675 q 0,0.04542 -0.039738,0.08515 -0.034061,0.03974 -0.09083,0.03974 -0.039738,0 -0.062446,-0.02271 -0.028385,-0.01703 -0.028385,-0.03974 0,-0.03974 0.028385,-0.0738 0.022708,-0.02271 0.062446,-0.02271 0,-0.04542 -0.051092,-0.06812 -0.056769,-0.02271 -0.1305683,-0.02271 H 7.4689959 q -0.079476,0 -0.1362452,0.03406 -0.051092,0.03974 -0.051092,0.09083 v 3.309624 q 0,0.04541 0.051092,0.07948 0.056769,0.04541 0.1362452,0.04541 h 0.3122287 q 0.073799,0 0.1305683,-0.03406 0.051092,-0.02271 0.051092,-0.06245 -0.039738,0 -0.062446,-0.02271 -0.028385,-0.03406 -0.028385,-0.06812 0,-0.02838 0.028385,-0.04541 0.022708,-0.01703 0.062446,-0.01703 0.056769,0 0.09083,0.03406 0.039738,0.03974 0.039738,0.09083 v 0.374674 H 7.1567672 Z M 10.222276,18.683714 9.8873401,17.70729 9.5524039,18.683714 H 9.001746 L 8.3886424,16.901172 h 0.544981 l 0.3406131,0.987778 0.3406131,-0.987778 h 0.5449814 l 0.334936,0.987778 0.340613,-0.987778 h 0.550658 l -0.613104,1.782542 z m 1.41922,-0.703934 q 0,-0.09651 0.05677,-0.175983 0.05677,-0.07948 0.147599,-0.130569 0.09083,-0.05677 0.210044,-0.08515 0.124892,-0.02838 0.25546,-0.02838 h 0.272491 q 0.02838,0 0.06245,0.0057 0.03974,0 0.0738,0.01135 0.03406,0.0057 0.06245,0.02271 0.03406,0.01135 0.05109,0.02271 v -0.238429 q 0,-0.07948 -0.06245,-0.119214 -0.06245,-0.03974 -0.16463,-0.03974 h -0.164629 q -0.107861,0 -0.170307,0.03974 -0.06245,0.03974 -0.06245,0.119214 v 0.05677 h -0.544981 v -0.113538 q 0,-0.09651 0.05109,-0.175983 0.05677,-0.07948 0.147599,-0.130568 0.09651,-0.05677 0.215722,-0.08515 0.119215,-0.02838 0.249783,-0.02838 h 0.386028 q 0.130568,0 0.249783,0.02838 0.119215,0.02839 0.210045,0.08515 0.09651,0.05109 0.147599,0.130568 0.05677,0.07948 0.05677,0.175983 v 1.356776 h -0.544981 v -0.05109 q -0.124892,0.05109 -0.278168,0.05109 h -0.244106 q -0.130568,0 -0.25546,-0.02839 -0.119214,-0.02838 -0.210044,-0.07948 -0.09083,-0.05677 -0.147599,-0.136245 -0.05677,-0.07948 -0.05677,-0.175984 z m 1.192146,0.05109 q -0.0057,-0.07948 -0.06812,-0.113538 -0.05677,-0.03974 -0.158953,-0.03974 h -0.187337 q -0.107861,0 -0.170306,0.03974 -0.06245,0.03974 -0.06245,0.119215 v 0.170307 q 0,0.07948 0.06245,0.119214 0.06245,0.03974 0.170306,0.03974 h 0.187337 q 0.102184,0 0.16463,-0.03974 0.06245,-0.03974 0.06245,-0.119214 z m 1.623588,-0.158953 q -0.130568,0 -0.25546,-0.02271 -0.119215,-0.02839 -0.210045,-0.07948 -0.09083,-0.05677 -0.147599,-0.136245 -0.05677,-0.07948 -0.05677,-0.18166 v -0.124892 q 0,-0.102184 0.05677,-0.18166 0.05677,-0.07948 0.147599,-0.130568 0.09083,-0.05677 0.210045,-0.08515 0.124892,-0.02838 0.25546,-0.02838 h 0.442797 q 0.136245,0 0.25546,0.02838 0.119214,0.02839 0.210045,0.08515 0.09651,0.05109 0.147599,0.130568 0.05677,0.07948 0.05677,0.18166 v 0.07948 h -0.544981 v -0.02839 q 0,-0.07948 -0.06245,-0.119214 -0.06245,-0.03974 -0.170307,-0.03974 h -0.227075 q -0.107861,0 -0.170307,0.03974 -0.06245,0.03974 -0.06245,0.119214 v 0.01703 q 0,0.08515 0.06245,0.124891 0.06245,0.03974 0.170307,0.03406 h 0.334936 q 0.136245,0 0.25546,0.02838 0.119214,0.02839 0.210045,0.08515 0.09651,0.05109 0.147599,0.130569 0.05677,0.07948 0.05677,0.18166 v 0.278168 q 0,0.102183 -0.05677,0.18166 -0.05109,0.07948 -0.147599,0.136245 -0.09083,0.05109 -0.210045,0.07948 -0.119215,0.02839 -0.25546,0.02839 H 14.45723 q -0.130568,0 -0.25546,-0.02839 -0.119215,-0.02838 -0.210045,-0.07948 -0.09083,-0.05677 -0.147599,-0.136245 -0.05677,-0.07948 -0.05677,-0.18166 v -0.175984 h 0.544981 v 0.124892 q 0,0.07948 0.06245,0.119214 0.06245,0.03974 0.170307,0.03974 h 0.227075 q 0.107861,0 0.170307,-0.03974 0.06245,-0.03974 0.06245,-0.119214 v -0.175984 q 0,-0.07948 -0.06245,-0.119214 -0.06245,-0.03974 -0.170307,-0.03974 z m 2.072056,0.811795 h -0.544981 v -1.776865 h 0.544981 v 0.107861 q 0.07948,-0.04542 0.170307,-0.0738 0.09083,-0.03406 0.198691,-0.03406 h 0.158952 q 0.158953,0 0.295198,0.03974 0.141922,0.03974 0.23843,0.119215 0.119214,-0.08515 0.244106,-0.119215 0.130568,-0.03974 0.249783,-0.03974 h 0.158952 q 0.130569,0 0.249783,0.02838 0.124892,0.02839 0.215722,0.08515 0.09083,0.05109 0.147599,0.130568 0.05677,0.0738 0.05677,0.175983 v 1.356776 H 18.36292 v -1.300007 q 0,-0.08515 -0.06245,-0.119214 -0.05677,-0.03974 -0.16463,-0.03974 h -0.09651 q -0.05677,0 -0.113537,0.01703 -0.05677,0.01135 -0.102184,0.03974 -0.03974,0.02271 -0.06812,0.05677 -0.02838,0.03406 -0.03406,0.0738 v 1.271622 h -0.544981 v -1.300007 q 0,-0.08515 -0.06245,-0.119214 -0.06245,-0.03974 -0.164629,-0.03974 h -0.102184 q -0.06245,0 -0.119215,0.01703 -0.05677,0.01703 -0.102184,0.04541 -0.04542,0.02839 -0.0738,0.06812 -0.02271,0.03974 -0.02271,0.08515 z m 4.603946,0 h -0.544981 v -2.321846 h 0.544981 v 0.607427 q 0.02271,-0.01703 0.05109,-0.02839 0.02838,-0.01135 0.06245,-0.01703 0.03406,-0.01135 0.06812,-0.01135 0.03974,-0.0057 0.0738,-0.0057 h 0.312228 q 0.136245,0 0.25546,0.02838 0.119215,0.02839 0.210045,0.08515 0.09651,0.05109 0.147599,0.130568 0.05677,0.0738 0.05677,0.175983 v 1.356776 h -0.544981 v -1.300007 q 0,-0.08515 -0.06245,-0.119214 -0.06245,-0.03974 -0.170307,-0.03974 h -0.227075 q -0.102184,0 -0.16463,0.03974 -0.06244,0.03406 -0.06812,0.10786 z m 1.668998,-1.356776 q 0,-0.102184 0.05677,-0.18166 0.05677,-0.07948 0.147599,-0.130568 0.09083,-0.05677 0.210045,-0.08515 0.124892,-0.02838 0.25546,-0.02838 h 0.380351 q 0.130569,0 0.249783,0.02838 0.119215,0.02839 0.210045,0.08515 0.09651,0.05109 0.147599,0.130568 0.05677,0.07948 0.05677,0.18166 v 0.93101 q 0,0.102183 -0.05677,0.18166 -0.05109,0.07948 -0.147599,0.136245 -0.09083,0.05109 -0.210045,0.07948 -0.119214,0.02839 -0.249783,0.02839 h -0.380351 q -0.130568,0 -0.25546,-0.02839 -0.119214,-0.02838 -0.210045,-0.07948 -0.09083,-0.05677 -0.147599,-0.136245 -0.05677,-0.07948 -0.05677,-0.18166 z m 1.169438,0.05109 q 0,-0.07948 -0.06245,-0.119214 -0.06245,-0.03974 -0.16463,-0.03974 h -0.164629 q -0.107861,0 -0.170307,0.03974 -0.06244,0.03974 -0.06244,0.119214 v 0.828826 q 0,0.07948 0.06244,0.119214 0.06245,0.03974 0.170307,0.03974 h 0.164629 q 0.102184,0 0.16463,-0.03974 0.06245,-0.03974 0.06245,-0.119214 z m 1.623584,0.493889 q -0.130568,0 -0.25546,-0.02271 -0.119215,-0.02839 -0.210045,-0.07948 -0.09083,-0.05677 -0.147599,-0.136245 -0.05677,-0.07948 -0.05677,-0.18166 v -0.124892 q 0,-0.102184 0.05677,-0.18166 0.05677,-0.07948 0.147599,-0.130568 0.09083,-0.05677 0.210045,-0.08515 0.124892,-0.02838 0.25546,-0.02838 h 0.442797 q 0.136245,0 0.25546,0.02838 0.119214,0.02839 0.210044,0.08515 0.09651,0.05109 0.147599,0.130568 0.05677,0.07948 0.05677,0.18166 v 0.07948 H 26.16294 v -0.02839 q 0,-0.07948 -0.06245,-0.119214 -0.06245,-0.03974 -0.170307,-0.03974 h -0.227075 q -0.107861,0 -0.170307,0.03974 -0.06245,0.03974 -0.06245,0.119214 v 0.01703 q 0,0.08515 0.06245,0.124891 0.06245,0.03974 0.170307,0.03406 h 0.334936 q 0.136245,0 0.25546,0.02838 0.119214,0.02839 0.210044,0.08515 0.09651,0.05109 0.147599,0.130569 0.05677,0.07948 0.05677,0.18166 v 0.278168 q 0,0.102183 -0.05677,0.18166 -0.05109,0.07948 -0.147599,0.136245 -0.09083,0.05109 -0.210044,0.07948 -0.119215,0.02839 -0.25546,0.02839 h -0.442797 q -0.130568,0 -0.25546,-0.02839 -0.119215,-0.02838 -0.210045,-0.07948 -0.09083,-0.05677 -0.147599,-0.136245 -0.05677,-0.07948 -0.05677,-0.18166 v -0.175984 h 0.544981 v 0.124892 q 0,0.07948 0.06245,0.119214 0.06245,0.03974 0.170307,0.03974 h 0.227075 q 0.107861,0 0.170307,-0.03974 0.06245,-0.03974 0.06245,-0.119214 v -0.175984 q 0,-0.07948 -0.06245,-0.119214 -0.06245,-0.03974 -0.170307,-0.03974 z m 2.668128,-0.96507 v 0.317905 h -0.34629 v 0.982102 q 0,0.07948 0.05677,0.119214 0.06245,0.03974 0.170307,0.03974 h 0.141922 v 0.317906 h -0.249783 q -0.130568,0 -0.25546,-0.02839 -0.119214,-0.02838 -0.210045,-0.07948 -0.09083,-0.05677 -0.147599,-0.136245 -0.05677,-0.07948 -0.05677,-0.18166 v -1.033194 h -0.32926 v -0.317905 h 0.32926 V 16.50379 h 0.550657 v 0.403059 z m 0.374672,1.776865 v -0.317906 h 0.533627 v -1.742803 h -0.533627 v -0.317906 h 1.078608 v 2.378615 z"
       id="text3"
       style="font-size:4.93889px;font-family:Dhurjati;-inkscape-font-specification:'Dhurjati, Normal';stroke-width:0.264583;fill:#ffffff;fill-opacity:1"
       aria-label="(wasm host]"
       transform="translate(0,168.49998)" /></g><g
     inkscape:groupmode="layer"
     id="layer2"
     inkscape:label="components"><circle
       style="display:inline;opacity:1;vector-effect:none;fill:#ff0000;fill-opacity:1;fill-rule:evenodd;stroke:none;stroke-width:1;stroke-linecap:butt;stroke-linejoin:miter;stroke-miterlimit:4;stroke-dasharray:none;stroke-dashoffset:0;stroke-opacity:1;paint-order:normal"
       id="path4954"
       cx="15.24"
       cy="46.063263"
       r="4"
       inkscape:label="P0" /><circle
       style="display:inline;vector-effect:none;fill:#ff0000;fill-opacity:1;fill-rule:evenodd;stroke:none;stroke-width:1;stroke-linecap:butt;stroke-linejoin:miter;stroke-miterlimit:4;stroke-dasharray:none;stroke-dashoffset:0;stroke-opacity:1;paint-order:normal"
       id="path4954-0"
       cx="30.48"
       cy="46.243156"
       r="4"
       inkscape:label="P1" /><circle
       style="display:inline;vector-effect:none;fill:#ff0000;fill-opacity:1;fill-rule:evenodd;stroke:none;stroke-width:1;stroke-linecap:butt;stroke-linejoin:miter;stroke-miterlimit:4;stroke-dasharray:none;stroke-dashoffset:0;stroke-opacity:1;paint-order:normal"
       id="path4954-0-9"
       cx="45.719997"
       cy="46.243156"
       r="4"
       inkscape:label="P2" /><circle
       style="display:inline;vector-effect:none;fill:#ff0000;fill-opacity:1;fill-rule:evenodd;stroke:none;stroke-width:1;stroke-linecap:butt;stroke-linejoin:miter;stroke-miterlimit:4;stroke-dasharray:none;stroke-dashoffset:0;stroke-opacity:1;paint-order:normal"
       id="path4954-0-9-3"
       cx="60.959999"
       cy="46.243156"
       r="4"
       inkscape:label="P3" /><circle
       style="display:inline;vector-effect:none;fill:#ff0000;fill-opacity:1;fill-rule:evenodd;stroke:none;stroke-width:1;stroke-linecap:butt;stroke-linejoin:miter;stroke-miterlimit:4;stroke-dasharray:none;stroke-dashoffset:0;stroke-opacity:1;paint-order:normal"
       id="path4954-0-9-3-6"
       cx="76.200005"
       cy="46.243156"
       r="4"
       inkscape:label="P4" /><circle
       style="display:inline;vector-effect:none;fill:#ff0000;fill-opacity:1;fill-rule:evenodd;stroke:none;stroke-width:1;stroke-linecap:butt;stroke-linejoin:miter;stroke-miterlimit:4;stroke-dasharray:none;stroke-dashoffset:0;stroke-opacity:1;paint-order:normal"
       id="path4954-0-9-3-6-0"
       cx="91.44001"
       cy="46.243156"
       r="4"
       inkscape:label="P5" /><circle
       style="display:inline;vector-effect:none;fill:#ff0000;fill-opacity:1;fill-rule:evenodd;stroke:none;stroke-width:1;stroke-linecap:butt;stroke-linejoin:miter;stroke-miterlimit:4;stroke-dasharray:none;stroke-dashoffset:0;stroke-opacity:1;paint-order:normal"
       id="path4954-0-9-3-6-0-6"
       cx="106.68002"
       cy="46.243156"
       r="4"
       inkscape:label="P6" /><circle
       r="4"
       cy="77.477875"
       cx="15.24"
       id="circle4956"
       style="display:inline;opacity:1;vector-effect:none;fill:#00ff00;fill-opacity:1;fill-rule:evenodd;stroke:none;stroke-width:1;stroke-linecap:butt;stroke-linejoin:miter;stroke-miterlimit:4;stroke-dasharray:none;stroke-dashoffset:0;stroke-opacity:1;paint-order:normal"
       inkscape:label="PITCH" /><circle
       r="4"
       cy="77.477875"
       cx="30.48"
       id="circle4956-6"
       style="display:inline;vector-effect:none;fill:#00ff00;fill-opacity:1;fill-rule:evenodd;stroke:none;stroke-width:1;stroke-linecap:butt;stroke-linejoin:miter;stroke-miterlimit:4;stroke-dasharray:none;stroke-dashoffset:0;stroke-opacity:1;paint-order:normal"
       inkscape:label="I1" /><circle
       r="4"
       cy="77.477875"
       cx="45.720001"
       id="circle4956-6-2"
       style="display:inline;vector-effect:none;fill:#00ff00;fill-opacity:1;fill-rule:evenodd;stroke:none;stroke-width:1;stroke-linecap:butt;stroke-linejoin:miter;stroke-miterlimit:4;stroke-dasharray:none;stroke-dashoffset:0;stroke-opacity:1;paint-order:normal"
       inkscape:label="I2" /><circle
       r="4"
       cy="77.477875"
       cx="60.959999"
       id="circle4956-6-2-9"
       style="display:inline;vector-effect:none;fill:#00ff00;fill-opacity:1;fill-rule:evenodd;stroke:none;stroke-width:1;stroke-linecap:butt;stroke-linejoin:miter;stroke-miterlimit:4;stroke-dasharray:none;stroke-dashoffset:0;stroke-opacity:1;paint-order:normal"
       inkscape:label="I3" /><circle
       r="4"
       cy="77.477875"
       cx="76.199997"
       id="circle4956-6-2-9-1"
       style="display:inline;vector-effect:none;fill:#00ff00;fill-opacity:1;fill-rule:evenodd;stroke:none;stroke-width:1;stroke-linecap:butt;stroke-linejoin:miter;stroke-miterlimit:4;stroke-dasharray:none;stroke-dashoffset:0;stroke-opacity:1;paint-order:normal"
       inkscape:label="I4" /><circle
       r="4"
       cy="77.477875"
       cx="91.439995"
       id="circle4956-6-2-9-1-2"
       style="display:inline;vector-effect:none;fill:#00ff00;fill-opacity:1;fill-rule:evenodd;stroke:none;stroke-width:1;stroke-linecap:butt;stroke-linejoin:miter;stroke-miterlimit:4;stroke-dasharray:none;stroke-dashoffset:0;stroke-opacity:1;paint-order:normal"
       inkscape:label="I5" /><circle
       r="4"
       cy="77.477875"
       cx="106.67999"
       id="circle4956-6-2-9-1-2-7"
       style="display:inline;vector-effect:none;fill:#00ff00;fill-opacity:1;fill-rule:evenodd;stroke:none;stroke-width:1;stroke-linecap:butt;stroke-linejoin:miter;stroke-miterlimit:4;stroke-dasharray:none;stroke-dashoffset:0;stroke-opacity:1;paint-order:normal"
       inkscape:label="I6" /><circle
       style="display:inline;opacity:1;vector-effect:none;fill:#0000ff;fill-opacity:1;fill-rule:evenodd;stroke:none;stroke-width:1;stroke-linecap:butt;stroke-linejoin:miter;stroke-miterlimit:4;stroke-dasharray:none;stroke-dashoffset:0;stroke-opacity:1;paint-order:normal"
       id="circle4958"
       cx="15.24"
       cy="108.71259"
       r="4"
       inkscape:label="OUT_L" /><circle
       style="display:inline;vector-effect:none;fill:#0000ff;fill-opacity:1;fill-rule:evenodd;stroke:none;stroke-width:1;stroke-linecap:butt;stroke-linejoin:miter;stroke-miterlimit:4;stroke-dasharray:none;stroke-dashoffset:0;stroke-opacity:1;paint-order:normal"
       id="circle4958-3"
       cx="30.48"
       cy="108.71259"
       r="4"
       inkscape:label="OUT_R" /><circle
       style="display:inline;vector-effect:none;fill:#0000ff;fill-opacity:1;fill-rule:evenodd;stroke:none;stroke-width:1;stroke-linecap:butt;stroke-linejoin:miter;stroke-miterlimit:4;stroke-dasharray:none;stroke-dashoffset:0;stroke-opacity:1;paint-order:normal"
       id="circle4958-3-6"
       cx="45.720001"
       cy="108.71259"
       r="4"
       inkscape:label="OUT_2" /><circle
       style="display:inline;vector-effect:none;fill:#0000ff;fill-opacity:1;fill-rule:evenodd;stroke:none;stroke-width:1;stroke-linecap:butt;stroke-linejoin:miter;stroke-miterlimit:4;stroke-dasharray:none;stroke-dashoffset:0;stroke-opacity:1;paint-order:normal"
       id="circle4958-3-6-7"
       cx="60.959999"
       cy="108.71259"
       r="4"
       inkscape:label="OUT_3" /><circle
       style="display:inline;vector-effect:none;fill:#0000ff;fill-opacity:1;fill-rule:evenodd;stroke:none;stroke-width:1;stroke-linecap:butt;stroke-linejoin:miter;stroke-miterlimit:4;stroke-dasharray:none;stroke-dashoffset:0;stroke-opacity:1;paint-order:normal"
       id="circle4958-3-6-7-5"
       cx="76.199997"
       cy="108.71259"
       r="4"
       inkscape:label="OUT_4" /><circle
       style="display:inline;vector-effect:none;fill:#0000ff;fill-opacity:1;fill-rule:evenodd;stroke:none;stroke-width:1;stroke-linecap:butt;stroke-linejoin:miter;stroke-miterlimit:4;stroke-dasharray:none;stroke-dashoffset:0;stroke-opacity:1;paint-order:normal"
       id="circle4958-3-6-7-5-3"
       cx="91.439995"
       cy="108.71259"
       r="4"
       inkscape:label="OUT_5" /><circle
       style="display:inline;vector-effect:none;fill:#0000ff;fill-opacity:1;fill-rule:evenodd;stroke:none;stroke-width:1;stroke-linecap:butt;stroke-linejoin:miter;stroke-miterlimit:4;stroke-dasharray:none;stroke-dashoffset:0;stroke-opacity:1;paint-order:normal"
       id="circle4958-3-6-7-5-3-5"
       cx="106.67999"
       cy="108.71259"
       r="4"
       inkscape:label="OUT_6" /></g></svg>
