<?xml version="1.0" encoding="UTF-8" standalone="no"?>
<!-- Created with Inkscape (http://www.inkscape.org/) -->

<svg
   width="30.48mm"
   height="128.5mm"
   viewBox="0 0 30.480002 128.50002"
   version="1.1"
   id="svg8"
   inkscape:version="1.3.1 (9b9bdc1480, 2023-11-25, custom)"
   sodipodi:docname="RustismOsc.svg"
   xmlns:inkscape="http://www.inkscape.org/namespaces/inkscape"
   xmlns:sodipodi="http://sodipodi.sourceforge.net/DTD/sodipodi-0.dtd"
   xmlns="http://www.w3.org/2000/svg"
   xmlns:svg="http://www.w3.org/2000/svg"
   xmlns:rdf="http://www.w3.org/1999/02/22-rdf-syntax-ns#"
   xmlns:cc="http://creativecommons.org/ns#"
   xmlns:dc="http://purl.org/dc/elements/1.1/">
  <defs
     id="defs2" />
  <sodipodi:namedview
     id="base"
     pagecolor="#ffffff"
     bordercolor="#666666"
     borderopacity="1.0"
     inkscape:pageopacity="0.0"
     inkscape:pageshadow="2"
     inkscape:zoom="1.8030938"
     inkscape:cx="8.3190348"
     inkscape:cy="240.4201"
     inkscape:document-units="mm"
     inkscape:current-layer="layer1"
     showgrid="false"
     units="mm"
     inkscape:snap-bbox="true"
     inkscape:snap-page="true"
     inkscape:bbox-nodes="false"
     inkscape:snap-bbox-edge-midpoints="false"
     inkscape:window-width="1920"
     inkscape:window-height="1131"
     inkscape:window-x="0"
     inkscape:window-y="0"
     inkscape:window-maximized="1"
     inkscape:snap-bbox-midpoints="true"
     inkscape:snap-nodes="false"
     inkscape:showpageshadow="2"
     inkscape:pagecheckerboard="0"
     inkscape:deskcolor="#d1d1d1" />
  <metadata
     id="metadata5">
    <rdf:RDF>
      <cc:Work
         rdf:about="">
        <dc:format>image/svg+xml</dc:format>
        <dc:type
           rdf:resource="http://purl.org/dc/dcmitype/StillImage" />
        <dc:title />
      </cc:Work>
    </rdf:RDF>
  </metadata>
  <g
     inkscape:label="Layer 1"
     inkscape:groupmode="layer"
     id="layer1"
     transform="translate(0,-168.49998)"
     style="display:inline">
    <rect
       style="display:inline;opacity:1;vector-effect:none;fill:#e6e6e6;fill-opacity:1;fill-rule:evenodd;stroke:none;stroke-width:0.649358;stroke-linecap:butt;stroke-linejoin:miter;stroke-miterlimit:4;stroke-dasharray:none;stroke-dashoffset:0;stroke-opacity:1;paint-order:normal"
       id="rect420"
       width="30.48"
       height="128.5"
       x="5.9211732e-17"
       y="168.49997" />
    <g
       aria-label="Pitch"
       style="font-style:normal;font-variant:normal;font-weight:300;font-stretch:normal;font-size:4.93889px;line-height:6.61458px;font-family:'Gotham Rounded';-inkscape-font-specification:'Gotham Rounded Light';font-variant-ligatures:normal;font-variant-caps:normal;font-variant-numeric:normal;font-feature-settings:normal;text-align:center;letter-spacing:0px;word-spacing:0px;writing-mode:lr-tb;text-anchor:middle;display:inline;fill:#000000;fill-opacity:1;stroke:none;stroke-width:0.264583px;stroke-linecap:butt;stroke-linejoin:miter;stroke-opacity:1"
       id="text4944"
       transform="translate(0,10.583334)">
      <path
         d="m 10.377818,215.46915 c 0,0.0593 0.0508,0.11007 0.110067,0.11007 0.05927,0 0.110067,-0.0508 0.110067,-0.11007 v -1.01176 h 0.8001 c 0.618066,0 1.155699,-0.32174 1.155699,-0.94404 v -0.008 c 0,-0.5715 -0.448733,-0.90594 -1.100666,-0.90594 h -0.9652 c -0.05927,0 -0.110067,0.0508 -0.110067,0.11007 z m 0.220134,-1.21496 v -1.45204 h 0.8382 c 0.533399,0 0.897466,0.24554 0.897466,0.71544 v 0.008 c 0,0.44027 -0.372533,0.72814 -0.922866,0.72814 z"
         style="font-style:normal;font-variant:normal;font-weight:300;font-stretch:normal;font-size:4.23333px;font-family:'Gotham Rounded';-inkscape-font-specification:'Gotham Rounded Light';text-align:center;text-anchor:middle;stroke-width:0.264583px"
         id="path5046"
         inkscape:connector-curvature="0" />
      <path
         d="m 13.163219,212.73442 c 0,0.072 0.05503,0.127 0.127,0.127 0.07197,0 0.131233,-0.055 0.131233,-0.127 v -0.072 c 0,-0.072 -0.05927,-0.127 -0.131233,-0.127 -0.07197,0 -0.127,0.055 -0.127,0.127 z m 0.0254,2.73897 c 0,0.0635 0.04657,0.10583 0.105833,0.10583 0.05927,0 0.1016,-0.0423 0.1016,-0.10583 v -1.9812 c 0,-0.0635 -0.04657,-0.10584 -0.105833,-0.10584 -0.05927,0 -0.1016,0.0466 -0.1016,0.10584 z"
         style="font-style:normal;font-variant:normal;font-weight:300;font-stretch:normal;font-size:4.23333px;font-family:'Gotham Rounded';-inkscape-font-specification:'Gotham Rounded Light';text-align:center;text-anchor:middle;stroke-width:0.264583px"
         id="path5048"
         inkscape:connector-curvature="0" />
      <path
         d="m 14.928717,215.60039 c 0.122767,0 0.220134,-0.0254 0.3048,-0.055 0.04233,-0.0169 0.06773,-0.0466 0.06773,-0.0889 0,-0.0508 -0.04657,-0.0931 -0.09313,-0.0931 -0.02963,0 -0.09737,0.0423 -0.245533,0.0423 -0.249767,0 -0.4318,-0.11006 -0.4318,-0.4191 v -1.39276 h 0.677333 c 0.0508,0 0.09737,-0.0423 0.09737,-0.0931 0,-0.0508 -0.04657,-0.0974 -0.09737,-0.0974 h -0.677333 v -0.60114 c 0,-0.0593 -0.04657,-0.10583 -0.105833,-0.10583 -0.05927,0 -0.1016,0.0466 -0.1016,0.10583 v 0.60114 h -0.232833 c -0.0508,0 -0.09737,0.0423 -0.09737,0.0931 0,0.0508 0.04657,0.0974 0.09737,0.0974 h 0.232833 v 1.41393 c 0,0.41063 0.270933,0.59267 0.605366,0.59267 z"
         style="font-style:normal;font-variant:normal;font-weight:300;font-stretch:normal;font-size:4.23333px;font-family:'Gotham Rounded';-inkscape-font-specification:'Gotham Rounded Light';text-align:center;text-anchor:middle;stroke-width:0.264583px"
         id="path5050"
         inkscape:connector-curvature="0" />
      <path
         d="m 16.790392,215.61309 c 0.3683,0 0.618067,-0.1524 0.833967,-0.37254 0.01693,-0.0169 0.0254,-0.0423 0.0254,-0.0635 0,-0.0508 -0.0508,-0.1016 -0.1016,-0.1016 -0.02963,0 -0.0508,0.0169 -0.06773,0.0339 -0.173566,0.17357 -0.397933,0.30903 -0.677333,0.30903 -0.4953,0 -0.889,-0.41486 -0.889,-0.93556 v -0.008 c 0,-0.51647 0.381,-0.9271 0.872067,-0.9271 0.2921,0 0.4953,0.1397 0.668866,0.3048 0.01693,0.0169 0.04657,0.0254 0.07197,0.0254 0.05927,0 0.105833,-0.0466 0.105833,-0.10583 0,-0.0296 -0.0127,-0.0593 -0.02963,-0.0762 -0.194733,-0.18204 -0.440267,-0.3429 -0.8128,-0.3429 -0.618067,0 -1.100667,0.52493 -1.100667,1.1303 v 0.008 c 0,0.60537 0.478367,1.12184 1.100667,1.12184 z"
         style="font-style:normal;font-variant:normal;font-weight:300;font-stretch:normal;font-size:4.23333px;font-family:'Gotham Rounded';-inkscape-font-specification:'Gotham Rounded Light';text-align:center;text-anchor:middle;stroke-width:0.264583px"
         id="path5052"
         inkscape:connector-curvature="0" />
      <path
         d="m 18.252215,215.47339 c 0,0.0635 0.04657,0.10583 0.105833,0.10583 0.05927,0 0.1016,-0.0423 0.1016,-0.10583 v -1.15994 c 0,-0.44873 0.325967,-0.77046 0.7493,-0.77046 0.436033,0 0.6858,0.2921 0.6858,0.7366 v 1.1938 c 0,0.0635 0.04657,0.10583 0.105833,0.10583 0.05927,0 0.1016,-0.0423 0.1016,-0.10583 v -1.2319 c 0,-0.51647 -0.3175,-0.889 -0.8636,-0.889 -0.3937,0 -0.635,0.19896 -0.778933,0.45296 v -1.2446 c 0,-0.0593 -0.04657,-0.10583 -0.105833,-0.10583 -0.05927,0 -0.1016,0.0466 -0.1016,0.10583 z"
         style="font-style:normal;font-variant:normal;font-weight:300;font-stretch:normal;font-size:4.23333px;font-family:'Gotham Rounded';-inkscape-font-specification:'Gotham Rounded Light';text-align:center;text-anchor:middle;stroke-width:0.264583px"
         id="path5054"
         inkscape:connector-curvature="0" />
    </g>
    <g
       aria-label="1V/oct"
       style="font-style:normal;font-variant:normal;font-weight:300;font-stretch:normal;font-size:4.93889px;line-height:6.61458px;font-family:'Gotham Rounded';-inkscape-font-specification:'Gotham Rounded Light';font-variant-ligatures:normal;font-variant-caps:normal;font-variant-numeric:normal;font-feature-settings:normal;text-align:center;letter-spacing:0px;word-spacing:0px;writing-mode:lr-tb;text-anchor:middle;display:inline;fill:#000000;fill-opacity:1;stroke:none;stroke-width:0.264583px;stroke-linecap:butt;stroke-linejoin:miter;stroke-opacity:1"
       id="text4948"
       transform="translate(0,5.2916669)">
      <path
         d="m 9.6908279,252.06539 c 0,0.0593 0.0508,0.11007 0.1100667,0.11007 0.059267,0 0.1058333,-0.0508 0.1058333,-0.11007 v -2.794 c 0,-0.055 -0.0381,-0.10583 -0.1058333,-0.10583 h -0.00847 c -0.046567,0 -0.0889,0.0127 -0.1354666,0.0296 l -0.5164667,0.1905 c -0.046567,0.0169 -0.080433,0.0423 -0.080433,0.0931 0,0.0508 0.042333,0.0931 0.093133,0.0931 0.016933,0 0.033867,-0.004 0.055033,-0.0127 l 0.4826,-0.1651 z"
         style="font-style:normal;font-variant:normal;font-weight:300;font-stretch:normal;font-size:4.23333px;font-family:'Gotham Rounded';-inkscape-font-specification:'Gotham Rounded Light';text-align:center;text-anchor:middle;stroke-width:0.264583px"
         id="path5057"
         inkscape:connector-curvature="0" />
      <path
         d="m 11.938463,252.18816 h 0.0085 c 0.06773,0 0.105833,-0.0381 0.131233,-0.0974 l 1.210733,-2.7686 c 0.0085,-0.0169 0.0085,-0.0254 0.0085,-0.0423 0,-0.0508 -0.04657,-0.1016 -0.105833,-0.1016 -0.0508,0 -0.0889,0.0381 -0.110067,0.0847 l -1.134533,2.65854 -1.1303,-2.6543 c -0.02117,-0.0508 -0.05927,-0.0889 -0.1143,-0.0889 -0.0635,0 -0.110067,0.055 -0.110067,0.10583 0,0.0212 0,0.0296 0.0085,0.0466 l 1.2065,2.76013 c 0.0254,0.0593 0.0635,0.0974 0.131233,0.0974 z"
         style="font-style:normal;font-variant:normal;font-weight:300;font-stretch:normal;font-size:4.23333px;font-family:'Gotham Rounded';-inkscape-font-specification:'Gotham Rounded Light';text-align:center;text-anchor:middle;stroke-width:0.264583px"
         id="path5059"
         inkscape:connector-curvature="0" />
      <path
         d="m 13.000435,252.62842 c 0,0.0508 0.0381,0.0889 0.0889,0.0889 0.04233,0 0.07197,-0.0254 0.0889,-0.0593 l 1.913466,-3.75074 c 0.0085,-0.0169 0.0127,-0.0381 0.0127,-0.055 0,-0.0508 -0.0381,-0.0889 -0.0889,-0.0889 -0.04233,0 -0.07197,0.0254 -0.0889,0.0593 l -1.913466,3.75073 c -0.0085,0.0169 -0.0127,0.0381 -0.0127,0.055 z"
         style="font-style:normal;font-variant:normal;font-weight:300;font-stretch:normal;font-size:4.23333px;font-family:'Gotham Rounded';-inkscape-font-specification:'Gotham Rounded Light';text-align:center;text-anchor:middle;stroke-width:0.264583px"
         id="path5061"
         inkscape:connector-curvature="0" />
      <path
         d="m 16.153937,252.20932 c 0.643467,0 1.113367,-0.52493 1.113367,-1.1303 v -0.008 c 0,-0.60537 -0.465667,-1.12184 -1.1049,-1.12184 -0.643467,0 -1.113367,0.52494 -1.113367,1.1303 v 0.008 c 0,0.60537 0.465667,1.12183 1.1049,1.12183 z m 0.0085,-0.19473 c -0.499534,0 -0.889,-0.41487 -0.889,-0.93557 v -0.008 c 0,-0.508 0.3683,-0.9271 0.880533,-0.9271 0.499533,0 0.889,0.41486 0.889,0.93556 v 0.008 c 0,0.508 -0.3683,0.9271 -0.880533,0.9271 z"
         style="font-style:normal;font-variant:normal;font-weight:300;font-stretch:normal;font-size:4.23333px;font-family:'Gotham Rounded';-inkscape-font-specification:'Gotham Rounded Light';text-align:center;text-anchor:middle;stroke-width:0.264583px"
         id="path5063"
         inkscape:connector-curvature="0" />
      <path
         d="m 18.861683,252.20932 c 0.3683,0 0.618066,-0.1524 0.833966,-0.37253 0.01693,-0.0169 0.0254,-0.0423 0.0254,-0.0635 0,-0.0508 -0.0508,-0.1016 -0.1016,-0.1016 -0.02963,0 -0.0508,0.0169 -0.06773,0.0339 -0.173567,0.17356 -0.397933,0.30903 -0.677333,0.30903 -0.4953,0 -0.889,-0.41487 -0.889,-0.93557 v -0.008 c 0,-0.51647 0.381,-0.9271 0.872066,-0.9271 0.2921,0 0.4953,0.1397 0.668867,0.3048 0.01693,0.0169 0.04657,0.0254 0.07197,0.0254 0.05927,0 0.105834,-0.0466 0.105834,-0.10584 0,-0.0296 -0.0127,-0.0593 -0.02963,-0.0762 -0.194733,-0.18203 -0.440266,-0.3429 -0.812799,-0.3429 -0.618067,0 -1.100667,0.52494 -1.100667,1.1303 v 0.008 c 0,0.60537 0.478367,1.12183 1.100667,1.12183 z"
         style="font-style:normal;font-variant:normal;font-weight:300;font-stretch:normal;font-size:4.23333px;font-family:'Gotham Rounded';-inkscape-font-specification:'Gotham Rounded Light';text-align:center;text-anchor:middle;stroke-width:0.264583px"
         id="path5065"
         inkscape:connector-curvature="0" />
      <path
         d="m 21.043172,252.19662 c 0.122767,0 0.220133,-0.0254 0.3048,-0.055 0.04233,-0.0169 0.06773,-0.0466 0.06773,-0.0889 0,-0.0508 -0.04657,-0.0931 -0.09313,-0.0931 -0.02963,0 -0.09737,0.0423 -0.245533,0.0423 -0.249767,0 -0.4318,-0.11007 -0.4318,-0.4191 v -1.39277 h 0.677333 c 0.0508,0 0.09737,-0.0423 0.09737,-0.0931 0,-0.0508 -0.04657,-0.0974 -0.09737,-0.0974 h -0.677333 v -0.60113 c 0,-0.0593 -0.04657,-0.10583 -0.105834,-0.10583 -0.05927,0 -0.1016,0.0466 -0.1016,0.10583 v 0.60113 h -0.232833 c -0.0508,0 -0.09737,0.0423 -0.09737,0.0931 0,0.0508 0.04657,0.0974 0.09737,0.0974 h 0.232833 v 1.41394 c 0,0.41063 0.270934,0.59266 0.605367,0.59266 z"
         style="font-style:normal;font-variant:normal;font-weight:300;font-stretch:normal;font-size:4.23333px;font-family:'Gotham Rounded';-inkscape-font-specification:'Gotham Rounded Light';text-align:center;text-anchor:middle;stroke-width:0.264583px"
         id="path5067"
         inkscape:connector-curvature="0" />
    </g>
    <g
       aria-label="Sine"
       style="font-style:normal;font-variant:normal;font-weight:300;font-stretch:normal;font-size:4.93889px;line-height:6.61458px;font-family:'Gotham Rounded';-inkscape-font-specification:'Gotham Rounded Light';font-variant-ligatures:normal;font-variant-caps:normal;font-variant-numeric:normal;font-feature-settings:normal;text-align:center;letter-spacing:0px;word-spacing:0px;writing-mode:lr-tb;text-anchor:middle;display:inline;fill:#000000;fill-opacity:1;stroke:none;stroke-width:0.264583px;stroke-linecap:butt;stroke-linejoin:miter;stroke-opacity:1"
       id="text4952">
      <path
         d="m 12.236549,288.79709 c 0.5715,0 0.982133,-0.3302 0.982133,-0.80856 v -0.008 c 0,-0.4318 -0.287866,-0.67733 -0.973666,-0.81703 -0.702734,-0.14394 -0.8636,-0.33444 -0.8636,-0.6477 v -0.008 c 0,-0.30903 0.287866,-0.5588 0.7239,-0.5588 0.300566,0 0.5588,0.0804 0.817033,0.2794 0.02117,0.0169 0.04657,0.0254 0.07197,0.0254 0.05927,0 0.110066,-0.0508 0.110066,-0.11007 0,-0.0423 -0.0254,-0.072 -0.04657,-0.0889 -0.270934,-0.2032 -0.5461,-0.3048 -0.944034,-0.3048 -0.550333,0 -0.952499,0.33867 -0.952499,0.77894 v 0.008 c 0,0.44874 0.287866,0.69004 0.999066,0.83397 0.6731,0.13547 0.8382,0.3175 0.8382,0.63077 v 0.008 c 0,0.33867 -0.3048,0.58844 -0.7493,0.58844 -0.4064,0 -0.702733,-0.11854 -0.999066,-0.38524 -0.01693,-0.0127 -0.04233,-0.0254 -0.07197,-0.0254 -0.05927,0 -0.110067,0.0508 -0.110067,0.11007 0,0.0381 0.02117,0.0677 0.04233,0.0847 0.334433,0.27516 0.681566,0.41486 1.126066,0.41486 z"
         style="font-style:normal;font-variant:normal;font-weight:300;font-stretch:normal;font-size:4.23333px;font-family:'Gotham Rounded';-inkscape-font-specification:'Gotham Rounded Light';text-align:center;text-anchor:middle;stroke-width:0.264583px"
         id="path5070" />
      <path
         d="m 13.902895,285.92689 c 0,0.072 0.05503,0.127 0.127,0.127 0.07197,0 0.131233,-0.055 0.131233,-0.127 v -0.072 c 0,-0.072 -0.05927,-0.127 -0.131233,-0.127 -0.07197,0 -0.127,0.055 -0.127,0.127 z m 0.0254,2.73897 c 0,0.0635 0.04657,0.10583 0.105833,0.10583 0.05927,0 0.1016,-0.0423 0.1016,-0.10583 v -1.9812 c 0,-0.0635 -0.04657,-0.10583 -0.105833,-0.10583 -0.05927,0 -0.1016,0.0466 -0.1016,0.10583 z"
         style="font-style:normal;font-variant:normal;font-weight:300;font-stretch:normal;font-size:4.23333px;font-family:'Gotham Rounded';-inkscape-font-specification:'Gotham Rounded Light';text-align:center;text-anchor:middle;stroke-width:0.264583px"
         id="path5072" />
      <path
         d="m 14.948726,288.66586 c 0,0.0635 0.04657,0.10583 0.105834,0.10583 0.05927,0 0.1016,-0.0423 0.1016,-0.10583 v -1.15993 c 0,-0.44874 0.325966,-0.77047 0.7493,-0.77047 0.436033,0 0.6858,0.2921 0.6858,0.7366 v 1.1938 c 0,0.0635 0.04657,0.10583 0.105833,0.10583 0.05927,0 0.1016,-0.0423 0.1016,-0.10583 v -1.2319 c 0,-0.51647 -0.3175,-0.889 -0.8636,-0.889 -0.3937,0 -0.635,0.19897 -0.778933,0.45297 v -0.31327 c 0,-0.0635 -0.04657,-0.10583 -0.105834,-0.10583 -0.05927,0 -0.1016,0.0466 -0.1016,0.10583 z"
         style="font-style:normal;font-variant:normal;font-weight:300;font-stretch:normal;font-size:4.23333px;font-family:'Gotham Rounded';-inkscape-font-specification:'Gotham Rounded Light';text-align:center;text-anchor:middle;stroke-width:0.264583px"
         id="path5074" />
      <path
         d="m 17.616917,287.57366 c 0.0381,-0.47837 0.3683,-0.8382 0.795867,-0.8382 0.4953,0 0.745066,0.40217 0.7747,0.8382 z m 1.680633,0.88053 c 0.0254,-0.0254 0.03387,-0.0508 0.03387,-0.072 0,-0.055 -0.04657,-0.0974 -0.1016,-0.0974 -0.02963,0 -0.0508,0.0127 -0.06773,0.0296 -0.173567,0.16934 -0.389467,0.29634 -0.6985,0.29634 -0.423334,0 -0.808567,-0.31327 -0.846667,-0.8509 h 1.693333 c 0.0508,0 0.1016,-0.0466 0.1016,-0.0974 0,-0.61807 -0.385233,-1.1176 -0.9906,-1.1176 -0.5842,0 -1.024466,0.49953 -1.024466,1.12607 v 0.008 c 0,0.6731 0.491066,1.12607 1.058333,1.12607 0.389467,0 0.630767,-0.1397 0.842433,-0.35137 z"
         style="font-style:normal;font-variant:normal;font-weight:300;font-stretch:normal;font-size:4.23333px;font-family:'Gotham Rounded';-inkscape-font-specification:'Gotham Rounded Light';text-align:center;text-anchor:middle;stroke-width:0.264583px"
         id="path5076" />
    </g>
    <g
       id="text1"
       style="font-style:normal;font-variant:normal;font-weight:300;font-stretch:normal;font-size:8.99999px;line-height:6.61458px;font-family:'Annapurna SIL';-inkscape-font-specification:'Annapurna SIL';font-variant-ligatures:normal;font-variant-caps:normal;font-variant-numeric:normal;font-feature-settings:normal;text-align:center;letter-spacing:0px;word-spacing:0px;writing-mode:lr-tb;text-anchor:middle;display:inline;fill:#ff0000;fill-opacity:1;stroke:none;stroke-width:0.265;stroke-linecap:butt;stroke-linejoin:miter;stroke-dasharray:none;stroke-opacity:1"
       inkscape:label="text1"
       aria-label="Rustism&#10;Osc"
       transform="translate(0,5.2916669)">
      <path
         style="font-family:Uroob;-inkscape-font-specification:Uroob;fill:#ff0000;fill-opacity:1;stroke-width:0.265;stroke-dasharray:none"
         d="M 6.8864455,176.11073 H 6.0602745 L 4.895725,173.67617 H 4.2673077 v 2.43456 H 3.4675038 v -5.63378 h 2.1708961 q 0.4306637,0 0.7382805,0.28564 0.3076169,0.28565 0.3076169,0.71631 v 1.31836 q 0,0.62402 -0.5361323,0.81738 -0.166992,0.0615 -0.3691402,0.0615 z M 5.888888,172.6083 v -0.98438 q 0,-0.29443 -0.2285154,-0.42627 -0.070312,-0.0439 -0.1625975,-0.0396 H 4.2673077 v 1.82812 h 1.3623032 q 0.2241209,-0.004 0.250488,-0.24169 0.00879,-0.0703 0.00879,-0.13623 z m 4.293452,3.48046 H 9.5143724 v -0.21094 q -0.175781,0.17578 -0.259277,0.19336 -0.083496,0.0176 -0.166992,0.0176 H 8.209198 q -0.3823238,0 -0.6372063,-0.25928 -0.2548826,-0.25927 -0.2548826,-0.64599 v -3.375 h 0.7514641 v 3.22998 q 0,0.16699 0.092285,0.28564 0.09668,0.11426 0.2768552,0.11426 h 0.6416009 q 0.1757811,0 0.2636716,-0.18457 0.087891,-0.18457 0.087891,-0.39111 v -3.0542 H 10.18234 Z m 2.408201,-3.34863 q 0.0088,-0.24609 -0.303222,-0.24609 h -0.549316 q -0.377929,0.004 -0.342773,0.51416 0.0088,0.13183 0.0088,0.2373 0,0.32959 0.333984,0.32959 h 0.769042 q 0.395507,0 0.637206,0.28125 0.246094,0.28125 0.246094,0.67236 v 0.58887 q 0,0.4043 -0.263672,0.69434 -0.263671,0.28564 -0.663573,0.28564 h -0.966796 q -0.430664,0 -0.672363,-0.27686 -0.246093,-0.27685 -0.246093,-0.70751 h 0.755858 q -0.0088,0.1538 0.07471,0.21972 0.08789,0.0615 0.228516,0.0615 h 0.637206 q 0.333984,0 0.333984,-0.32959 v -0.43946 q 0,-0.34277 -0.333984,-0.34277 h -0.725097 q -0.399902,0 -0.663573,-0.25049 -0.263672,-0.25049 -0.263672,-0.64599 v -0.6416 q 0,-0.39551 0.246094,-0.67676 0.246093,-0.28125 0.637206,-0.28125 h 0.944823 q 0.404297,0 0.65039,0.26806 0.246094,0.26807 0.246094,0.68555 z m 2.73779,2.44336 q 0,0.32519 0.351562,0.32519 0.355957,0 0.395508,-0.36914 h 0.162597 v 0.79541 q -0.290039,0.26367 -0.676757,0.26367 -0.725097,0 -0.953612,-0.54492 -0.07471,-0.17578 -0.07471,-0.41748 v -2.63232 h -0.320801 v -0.66357 h 0.320801 v -0.83936 h 0.795409 v 0.83936 h 0.606445 v 0.66357 h -0.606445 z m 1.744627,-4.6582 q 0.483398,0 0.483398,0.49219 0,0.49658 -0.483398,0.49658 -0.237305,0 -0.364746,-0.12744 -0.127441,-0.13184 -0.127441,-0.36914 0,-0.23731 0.127441,-0.36475 0.127441,-0.12744 0.364746,-0.12744 z m 0.36914,5.54589 H 16.68624 v -4.27148 h 0.755858 z m 2.399412,-3.33105 q 0.0088,-0.24609 -0.303222,-0.24609 h -0.549316 q -0.37793,0.004 -0.342773,0.51416 0.0088,0.13183 0.0088,0.2373 0,0.32959 0.333984,0.32959 h 0.769042 q 0.395507,0 0.637206,0.28125 0.246094,0.28125 0.246094,0.67236 v 0.58887 q 0,0.4043 -0.263672,0.69434 -0.263671,0.28564 -0.663573,0.28564 h -0.966796 q -0.430664,0 -0.672363,-0.27686 -0.246093,-0.27685 -0.246093,-0.70751 h 0.755858 q -0.0088,0.1538 0.07471,0.21972 0.08789,0.0615 0.228516,0.0615 h 0.637206 q 0.333984,0 0.333984,-0.32959 v -0.43946 q 0,-0.34277 -0.333984,-0.34277 h -0.725097 q -0.399902,0 -0.663573,-0.25049 -0.263672,-0.25049 -0.263672,-0.64599 v -0.6416 q 0,-0.39551 0.246093,-0.67676 0.246094,-0.28125 0.637207,-0.28125 h 0.944823 q 0.404296,0 0.65039,0.26806 0.246093,0.26807 0.246093,0.68555 z m 4.196773,-0.62402 q 0.197754,-0.30762 0.522949,-0.30762 h 0.83496 q 0.382323,0 0.659179,0.25928 0.276855,0.25928 0.276855,0.64599 v 3.375 h -0.751464 v -3.22998 q 0,-0.16699 -0.09668,-0.28125 -0.09229,-0.11865 -0.272461,-0.11865 h -0.597655 q -0.219726,0 -0.285644,0.30322 -0.01758,0.0791 -0.01758,0.14502 v 3.18164 h -0.755859 v -3.30029 q 0,-0.21973 -0.23291,-0.30762 -0.06592,-0.0264 -0.131836,-0.022 h -0.641601 q -0.263671,0 -0.263671,0.61963 v 3.01025 h -0.755859 v -4.28027 h 0.672363 v 0.26367 q 0.193359,-0.26367 0.470214,-0.26367 H 23.4626 q 0.36914,0 0.575683,0.30762 z"
         id="path2" />
      <path
         style="font-family:Uroob;-inkscape-font-specification:Uroob;fill:#ff0000;fill-opacity:1;stroke-width:0.265;stroke-dasharray:none"
         d="m 6.5865806,181.63188 q 0,0.45263 -0.333984,0.77783 -0.333984,0.3208 -0.7998038,0.3208 H 4.5738874 q -0.4702143,0 -0.8129874,-0.31641 -0.3471676,-0.3164 -0.3471676,-0.78222 v -3.42773 q 0,-0.47022 0.3471676,-0.78662 0.3471676,-0.31641 0.8129874,-0.31641 h 0.8789054 q 0.4614252,0 0.7998038,0.3208 0.333984,0.3208 0.333984,0.78223 z m -0.7954093,-0.14502 v -3.13769 q 0,-0.35596 -0.2460935,-0.50537 -0.079102,-0.0527 -0.1889646,-0.0483 H 4.6266218 q -0.1889647,0 -0.3032224,0.16699 -0.1142577,0.16699 -0.1142577,0.38672 v 3.13769 q 0,0.34717 0.2329099,0.50098 0.079102,0.0527 0.1845702,0.0527 h 0.7294914 q 0.2021482,0 0.3208004,-0.17139 0.1142577,-0.17138 0.1142577,-0.38232 z m 3.2080044,-2.10937 q 0.00879,-0.2461 -0.3032223,-0.2461 H 8.1466376 q -0.3779293,0.004 -0.3427731,0.51416 0.00879,0.13184 0.00879,0.23731 0,0.32959 0.3339841,0.32959 h 0.7690421 q 0.3955074,0 0.6372064,0.28125 0.2460935,0.28125 0.2460935,0.67236 v 0.58887 q 0,0.40429 -0.2636716,0.69433 -0.2636716,0.28564 -0.6635735,0.28564 H 7.9049386 q -0.4306636,0 -0.6723626,-0.27685 -0.2460935,-0.27686 -0.2460935,-0.70752 h 0.7558586 q -0.00879,0.15381 0.074707,0.21973 0.087891,0.0615 0.2285154,0.0615 h 0.6372063 q 0.333984,0 0.333984,-0.32959 v -0.43945 q 0,-0.34277 -0.333984,-0.34277 H 7.9576729 q -0.3999019,0 -0.6635735,-0.25049 -0.2636716,-0.25049 -0.2636716,-0.646 v -0.6416 q 0,-0.39551 0.2460935,-0.67676 0.2460935,-0.28125 0.6372064,-0.28125 h 0.9448232 q 0.4042964,0 0.6503899,0.26807 0.2460935,0.26807 0.2460935,0.68555 z m 2.7861303,-0.27686 q -0.355957,0 -0.355957,0.36914 v 2.25 q 0,0.35156 0.355957,0.35156 h 0.624023 q 0.149414,0 0.237304,-0.0835 0.08789,-0.0879 0.08789,-0.2417 h 0.755858 q -0.01318,0.66357 -0.514159,0.90527 -0.166992,0.0791 -0.382324,0.0791 H 11.59634 q -0.391112,0 -0.645995,-0.28125 -0.259277,-0.28125 -0.259277,-0.67676 v -2.39941 q 0,-0.38672 0.241699,-0.66357 0.241699,-0.27246 0.619628,-0.27246 h 1.041503 q 0.391113,0 0.637206,0.27685 0.250488,0.27686 0.259277,0.67676 h -0.755858 q -0.0044,-0.12744 -0.0791,-0.20654 -0.07031,-0.0835 -0.202148,-0.0835 z"
         id="path3"
         inkscape:label="path3" />
    </g>
  </g>
  <g
     inkscape:groupmode="layer"
     id="layer2"
     inkscape:label="components">
    <circle
       style="display:none;opacity:1;vector-effect:none;fill:#ff0000;fill-opacity:1;fill-rule:evenodd;stroke:none;stroke-width:1;stroke-linecap:butt;stroke-linejoin:miter;stroke-miterlimit:4;stroke-dasharray:none;stroke-dashoffset:0;stroke-opacity:1;paint-order:normal"
       id="path4954"
       cx="15.24"
       cy="46.063263"
       r="4"
       inkscape:label="pitch" />
    <circle
       r="4"
       cy="77.477875"
       cx="15.24"
       id="circle4956"
       style="display:none;opacity:1;vector-effect:none;fill:#00ff00;fill-opacity:1;fill-rule:evenodd;stroke:none;stroke-width:1;stroke-linecap:butt;stroke-linejoin:miter;stroke-miterlimit:4;stroke-dasharray:none;stroke-dashoffset:0;stroke-opacity:1;paint-order:normal"
       inkscape:label="pitch" />
    <circle
       style="display:none;opacity:1;vector-effect:none;fill:#0000ff;fill-opacity:1;fill-rule:evenodd;stroke:none;stroke-width:1;stroke-linecap:butt;stroke-linejoin:miter;stroke-miterlimit:4;stroke-dasharray:none;stroke-dashoffset:0;stroke-opacity:1;paint-order:normal"
       id="circle4958"
       cx="15.24"
       cy="108.71259"
       r="4"
       inkscape:label="sine" />
    <circle
       inkscape:label="blink"
       r="4"
       cy="25.80987"
       cx="15.24"
       id="circle66"
       style="display:none;opacity:1;vector-effect:none;fill:#ff00ff;fill-opacity:1;fill-rule:evenodd;stroke:none;stroke-width:1;stroke-linecap:butt;stroke-linejoin:miter;stroke-miterlimit:4;stroke-dasharray:none;stroke-dashoffset:0;stroke-opacity:1;paint-order:normal" />
  </g>
</svg>
